<?xml version="1.0" encoding="utf-8"?>
<!-- Generator: Adobe Illustrator 16.0.0, SVG Export Plug-In . SVG Version: 6.00 Build 0)  -->
<!DOCTYPE svg PUBLIC "-//W3C//DTD SVG 1.1//EN" "http://www.w3.org/Graphics/SVG/1.1/DTD/svg11.dtd">
<svg version="1.1" id="Layer_1" xmlns="http://www.w3.org/2000/svg" xmlns:xlink="http://www.w3.org/1999/xlink" x="0px" y="0px"
	 width="245" height="100px" viewBox="0 0 422 225" enable-background="new 0 0 422 225" xml:space="preserve">
<polygon fill="#FFFFFF" points="180.812,112.044 166.854,112.044 166.854,98.561 157.479,98.561 157.479,136.06 166.854,136.06 
	166.854,120.259 180.812,120.259 180.812,136.06 190.186,136.06 190.186,98.561 180.812,98.561 "/>
<path fill="#FFFFFF" d="M207.856,98.561l-13.852,37.499h10.008l1.899-5.898h13.89l1.854,5.898h10.058l-14.167-37.499H207.856z
	 M207.976,123.209l4.778-15.482l4.863,15.482H207.976z"/>
<polygon fill="#FFFFFF" points="258.705,122.524 244.958,98.561 235.479,98.561 235.479,136.06 244.012,136.06 244.012,112.467
	257.862,136.06 267.236,136.06 267.236,98.561 258.705,98.561 "/>
<path fill="#FFFFFF" d="M288.777,98.561h-14.535v37.499h14.535c6.004,0,10.621-1.456,13.854-4.371
	c3.51-3.159,5.266-7.952,5.266-14.378c0-6.427-1.756-11.218-5.266-14.378C299.398,100.019,294.781,98.561,288.777,98.561z
	 M296.152,125.447c-1.58,1.811-3.969,2.714-7.162,2.714h-5.373v-21.7h5.32c3.193,0,5.59,0.904,7.188,2.712
	c1.598,1.81,2.396,4.522,2.396,8.138C298.521,120.928,297.732,123.641,296.152,125.447z"/>
<path fill="#FFFFFF" d="M336.705,116.783c2.633-0.632,4.6-1.667,5.898-3.106c1.299-1.438,1.949-3.264,1.949-5.478
	c0-3.23-1.053-5.644-3.16-7.241c-2.107-1.599-5.285-2.397-9.531-2.397h-18.328v37.499h17.062c5.127,0,8.961-0.895,11.51-2.687
	c2.543-1.789,3.814-4.457,3.814-8.005c0-2.634-0.895-4.702-2.684-6.213C341.621,117.786,339.443,116.994,336.705,116.783z
	 M322.486,105.513h7.795c1.684,0,2.895,0.247,3.631,0.737c0.846,0.598,1.266,1.651,1.266,3.162c0,1.297-0.402,2.272-1.213,2.921
	c-0.807,0.65-2.035,0.976-3.684,0.976h-7.795V105.513z M334.967,128.002c-1.055,0.737-2.635,1.106-4.738,1.106h-7.639v-8.85h9.324
	c1.717,0,2.92,0.353,3.605,1.056c0.686,0.702,1.025,1.842,1.025,3.423C336.545,126.176,336.021,127.265,334.967,128.002z"/>
<rect x="351.557" y="98.561" fill="#FFFFFF" width="9.375" height="37.499"/>
<path fill="#FFFFFF" d="M396.322,102.933c-3.229-2.914-7.846-4.372-13.85-4.372h-14.537v37.499h14.537
	c6.004,0,10.621-1.456,13.85-4.371c3.514-3.159,5.268-7.952,5.268-14.378C401.59,110.884,399.836,106.093,396.322,102.933z
	 M389.844,125.447c-1.578,1.811-3.967,2.714-7.16,2.714h-5.371v-21.7h5.32c3.191,0,5.588,0.904,7.186,2.712
	c1.598,1.81,2.396,4.522,2.396,8.138C392.215,120.928,391.426,123.641,389.844,125.447z"/>
<g>
	<path fill="#FFFFFF" d="M105.351,121.933c-2.27,0-4.482,0.234-6.628,0.655c0-0.001,0.003-0.012,0.003-0.012
		s-0.051,0.014-0.125,0.032c-0.341,0.07-0.68,0.141-1.013,0.219c-2.08,0.355-6.286,0.514-6.286-3.983V87.093v-7.153
		c0-5.647-4.602-10.219-10.281-10.219s-10.279,4.572-10.279,10.219v7.153v40.146v18.595c0,3.582-2.716,4.057-3.778,4.106h-0.419
		c-3.556,0-3.624-4.106-3.624-4.106v-16.608v-0.102c0-5.683-4.599-10.28-10.281-10.28c-5.679,0-10.279,4.598-10.279,10.28v0.102
		v47.484c0,0,0.071,14.503,20.56,14.503V176.71v-6.21h10.726c5.366,12.192,17.535,20.713,31.705,20.713
		c19.13,0,34.641-15.51,34.641-34.641C139.992,137.442,124.48,121.933,105.351,121.933z M105.351,172.686
		c-8.898,0-16.115-7.215-16.115-16.113c0-8.897,7.216-16.112,16.115-16.112c8.896,0,16.115,7.215,16.115,16.112
		C121.465,165.471,114.247,172.686,105.351,172.686z"/>
	<path fill="#FFFFFF" d="M105.351,123.455c-2.083,0-4.214,0.211-6.336,0.627l-0.389,0.077c-0.232,0.048-0.462,0.098-0.691,0.151
		l-0.045,0.01l-0.045,0.01c-0.141,0.022-0.28,0.044-0.419,0.063l-0.225,0.044v-0.015c-0.481,0.058-0.948,0.088-1.399,0.088
		c-3.771,0-6.022-2.118-6.022-5.667V87.093v-7.153c0-4.795-3.93-8.697-8.758-8.697c-4.829,0-8.757,3.902-8.757,8.697v7.153v40.146
		v18.595c0,3.969-2.701,5.508-5.229,5.628l-0.491,0.001c-3.708,0-5.11-3.352-5.146-5.604v-16.633v-0.102
		c0-4.828-3.929-8.758-8.758-8.758c-4.828,0-8.757,3.93-8.757,8.758v0.102v47.484c0.007,0.502,0.377,12.292,17.515,12.952V176.71
		v-6.21v-1.521h1.522h10.726h0.993l0.4,0.909c5.295,12.029,17.193,19.802,30.312,19.802c18.262,0,33.119-14.855,33.119-33.117
		C138.47,138.312,123.613,123.455,105.351,123.455z M105.351,174.207c-9.725,0-17.638-7.911-17.638-17.635
		s7.913-17.634,17.638-17.634c9.725,0,17.637,7.91,17.637,17.634S115.076,174.207,105.351,174.207z"/>
	<path fill="#FFFFFF" d="M33.103,79.907c0-26.53,21.507-48.035,48.036-48.035c26.531,0,48.034,21.504,48.034,48.035
		c0,15.335-7.195,28.981-18.381,37.775c2.182,0.305,4.304,0.795,6.358,1.442c10.592-9.732,17.235-23.697,17.235-39.217
		c0-29.408-23.837-53.248-53.246-53.248c-29.409,0-53.249,23.839-53.249,53.248c0,14.652,5.92,27.919,15.496,37.546
		c1.427-1.134,3.061-2.02,4.844-2.572C38.923,106.121,33.103,93.696,33.103,79.907z"/>
	<path fill="#FFFFFF" d="M48.336,79.907c0-18.116,14.687-32.802,32.803-32.802s32.804,14.686,32.804,32.802
		c0,12.792-7.329,23.868-18.013,29.276v6.574c14.078-5.813,23.988-19.67,23.988-35.85c0-21.417-17.362-38.778-38.779-38.778
		c-21.418,0-38.78,17.361-38.78,38.778c0,16.088,9.797,29.887,23.751,35.758v-6.604C55.557,103.609,48.336,92.604,48.336,79.907z"/>
	<path fill="#FFFFFF" d="M66.111,79.939c0-8.189,6.689-14.848,14.909-14.848c8.223,0,14.91,6.659,14.91,14.848v7.153V98.31
		c5.377-4.33,8.822-10.962,8.822-18.403c0-13.042-10.571-23.613-23.613-23.613S57.525,66.865,57.525,79.907
		c0,7.333,3.341,13.884,8.585,18.215V87.093V79.939z"/>
</g>
</svg>
